<svg version="1.1" id="Layer_1" xmlns="http://www.w3.org/2000/svg" x="0" y="0" width="50" height="50" style="enable-background:new 0 0 50 50" xml:space="preserve"><style>.st0{fill:#fff}.st2{fill:#2d98d5}.st10{fill:#505c94}.st12{fill:#fafbfc}</style><path class="st0" d="M-74.53 67.55h-48.85V18.7h48.85v48.85zm-41.75-43.67c.07.76.14 1.47.21 2.19l1.41 15.94c.47 5.31.94 10.63 1.4 15.94.03.33.12.48.46.58 4.49 1.27 8.97 2.55 13.45 3.85.3.09.56.04.83-.04 1.98-.57 3.97-1.14 5.95-1.7 2.43-.69 4.86-1.39 7.3-2.08.25-.07.49-.09.52-.48.15-2.02.35-4.04.52-6.07.23-2.59.45-5.19.68-7.78.27-3.08.55-6.15.82-9.23.24-2.67.48-5.33.71-8 .09-1.03.17-2.06.26-3.11-11.52-.01-22.98-.01-34.52-.01z"/><path d="M-116.28 23.88h34.53c-.09 1.05-.17 2.08-.26 3.11-.23 2.67-.47 5.33-.71 8-.27 3.08-.55 6.15-.82 9.23-.23 2.59-.46 5.19-.68 7.78-.18 2.02-.37 4.04-.52 6.07-.03.39-.28.41-.52.48-2.43.7-4.86 1.39-7.3 2.08-1.98.57-3.97 1.14-5.95 1.7-.27.08-.53.13-.83.04-4.48-1.3-8.96-2.58-13.45-3.85-.35-.1-.43-.25-.46-.58-.46-5.31-.93-10.63-1.4-15.94l-1.41-15.94c-.08-.7-.15-1.42-.22-2.18zm17.26 8.08h-9.34c.11 1.42.21 2.74.31 4.09h.68c2.78.01 5.56.01 8.34.02v3.88c-.24.14-.44.09-.64.09-1.15 0-2.29 0-3.44.01-.19 0-.4-.08-.55.11l.12 3.53c-.12.47.1.58.54.57 1.13-.02 2.26-.01 3.39 0 .19 0 .4-.07.59.13v5.4c0 .17-.05.28-.23.3-1.17-.39-2.34-.8-3.52-1.17-.36-.11-.48-.28-.47-.65.02-.67.01-1.35.01-2.02h-4.05c-.02.06-.05.1-.05.13.08 1.7.17 3.41.25 5.11.01.3.2.37.44.45 2.5.82 5 1.65 7.5 2.48.14.19.11.41.11.62v3.61c0 .19-.07.4.08.56.14.06.25.02.38-.02 1.58-.45 3.17-.89 4.75-1.35 1.91-.54 3.82-1.09 5.73-1.64.23-.07.49-.1.5-.46.01-.55.06-1.11.11-1.66.07-.96.15-1.92.23-2.89.13-1.51.28-3.02.41-4.53.09-.98.15-1.96.24-2.94.13-1.46.28-2.91.41-4.37.09-.98.15-1.96.23-2.94.13-1.57.27-3.13.42-4.7.09-1 .21-1.99.29-2.98.05-.6.08-1.19.11-1.8-.13-.02-.2-.04-.27-.04-4.4 0-8.8 0-13.21-.01-.4 0-.42.2-.42.5.03 1.52.02 3.05.02 4.58z" style="fill:#0c78be"/><path class="st0" d="m-103.53 43.69-.12-3.53c2.93-.01 5.86-.02 8.78-.01.42 0 .58-.12.59-.54.01-.47.1-.93.09-1.4-.01-.71.2-1.41.1-2.15h-4.94c-2.78-.01-5.56-.01-8.34-.02h-.68c-.1-1.35-.2-2.67-.31-4.09H-89.85c.03.14.06.19.06.24-.1 1.7-.2 3.4-.31 5.1-.17 2.67-.34 5.33-.5 8-.12 1.99-.24 3.98-.34 5.96-.02.39-.16.6-.56.72-2.37.76-4.73 1.54-7.1 2.32-.17.05-.35.07-.52.11-2.5-.83-5-1.66-7.5-2.48-.24-.08-.42-.15-.44-.45-.08-1.7-.16-3.41-.25-5.11 0-.03.02-.06.05-.13h4.05c0 .67.02 1.35-.01 2.02-.01.36.11.53.47.65 1.18.37 2.35.78 3.52 1.17.18.19.37.05.55-.01.9-.3 1.78-.67 2.7-.9.85-.22 1.4-.56 1.21-1.54-.01-.07.03-.14.03-.21.03-1.07.21-2.13.15-3.27h-8.78c-.07-.18-.12-.32-.16-.45z"/><path class="st2" d="M-99.12 54.41c.17-.04.35-.05.52-.11 2.37-.77 4.73-1.56 7.1-2.32.4-.13.54-.34.56-.72.11-1.99.22-3.98.34-5.96.16-2.67.34-5.33.5-8 .11-1.7.21-3.4.31-5.1 0-.05-.02-.1-.06-.24h-9.17c0-1.53.01-3.06 0-4.58 0-.31.02-.5.42-.5 4.4.01 8.8.01 13.21.01.07 0 .14.02.27.04-.04.61-.06 1.2-.11 1.8-.09 1-.2 1.99-.29 2.98l-.42 4.7c-.08.98-.15 1.96-.23 2.94-.13 1.46-.28 2.91-.41 4.37-.09.98-.15 1.96-.24 2.94-.13 1.51-.28 3.02-.41 4.53-.08.96-.16 1.92-.23 2.89-.04.55-.09 1.11-.11 1.66-.01.36-.27.39-.5.46-1.91.55-3.82 1.1-5.73 1.64l-4.75 1.35c-.12.03-.24.08-.38.02-.15-.16-.08-.37-.08-.56-.01-1.2 0-2.41 0-3.61 0-.22.03-.44-.11-.63z"/><path class="st2" d="M-103.53 43.69c.04.14.09.27.15.47h8.78c.05 1.13-.12 2.2-.15 3.27 0 .07-.04.15-.03.21.19.98-.36 1.33-1.21 1.54-.92.23-1.8.6-2.7.9-.18.06-.36.2-.55.01.18-.02.23-.14.23-.3v-5.4c-.2-.19-.4-.12-.59-.13-1.13-.01-2.26-.02-3.39 0-.44.01-.66-.1-.54-.57zM-99.02 36.07h4.94c.1.73-.1 1.44-.1 2.15 0 .46-.08.93-.09 1.4-.01.42-.17.54-.59.54-2.93-.01-5.86 0-8.78.01.15-.19.36-.11.55-.11 1.15-.01 2.29 0 3.44-.01.19 0 .39.05.64-.09-.01-1.29-.01-2.59-.01-3.89z"/><g><path d="M4.12 1.16h41.75l-.78 8.86c-.27 3.01-.54 6.03-.8 9.04l-.78 8.81c-.27 3.01-.54 6.03-.8 9.04-.2 2.26-.41 4.51-.6 6.77-.03.3-.12.45-.43.53-5.43 1.51-10.86 3.03-16.29 4.55-.26.07-.5.07-.77 0-5.43-1.52-10.86-3.04-16.29-4.55-.31-.09-.41-.23-.44-.53-.12-1.53-.26-3.06-.4-4.59l-.78-8.91c-.3-3.34-.6-6.68-.89-10.02l-.78-8.91c-.32-3.35-.62-6.72-.92-10.09zm9.19 24.71h18.11c0 .12.01.2 0 .28-.18 2.07-.37 4.14-.55 6.21-.02.23-.09.35-.33.41-1.77.47-3.53.96-5.29 1.44-.17.05-.34.05-.51 0-1.76-.48-3.52-.97-5.29-1.44-.22-.06-.31-.15-.32-.37-.02-.45-.06-.9-.1-1.35-.08-.91-.17-1.82-.25-2.73h-5.24c.03.39.07.76.1 1.13.2 2.3.41 4.61.61 6.91.03.31.13.44.44.53 3.34.92 6.68 1.86 10.02 2.8.2.06.39.05.59-.01 3.35-.94 6.71-1.88 10.07-2.81.28-.08.37-.19.39-.46.18-2.1.37-4.21.55-6.31.27-2.98.54-5.97.8-8.95.02-.18.08-.37-.06-.58H18.1c-.16-1.8-.31-3.55-.48-5.38h20.01c.15-1.78.3-3.51.45-5.24H11.9c.47 5.32.94 10.6 1.41 15.92z" style="fill:#f15b2c"/><path d="M13.31 25.87c-.47-5.32-.94-10.6-1.41-15.92h26.18c-.15 1.74-.3 3.46-.45 5.24H17.62c.16 1.82.32 3.58.48 5.38h18.95c.14.21.07.4.06.58-.26 2.98-.53 5.97-.8 8.95-.19 2.1-.38 4.2-.55 6.31-.02.27-.11.39-.39.46-3.36.92-6.71 1.86-10.07 2.81-.2.06-.39.06-.59.01-3.34-.94-6.68-1.88-10.02-2.8-.31-.09-.42-.22-.44-.53-.19-2.3-.4-4.61-.61-6.91-.03-.37-.06-.74-.1-1.13h5.24c.08.91.17 1.82.25 2.73.04.45.08.9.1 1.35.01.22.1.32.32.37 1.77.47 3.53.96 5.29 1.44.17.05.34.05.51 0 1.76-.48 3.52-.97 5.29-1.44.25-.07.31-.18.33-.41.18-2.07.37-4.14.55-6.21.01-.08 0-.15 0-.28H13.31z" style="fill:#fffefe"/></g><g><path d="M181.75-7.64h57.45c.02.36-.02.72-.05 1.08l-.24 2.71-.3 3.38-.24 2.71-.3 3.38-.24 2.71c-.1 1.14-.2 2.27-.31 3.41l-.24 2.68-.3 3.35c-.1 1.11-.19 2.22-.29 3.33l-.3 3.35c-.1 1.11-.19 2.22-.29 3.33l-.36 3.95c-.1 1.12-.19 2.24-.29 3.36l-.36 3.95c-.1 1.12-.19 2.24-.29 3.36l-.36 3.95c-.12 1.32-.23 2.63-.35 3.95-.02.25-.02.51-.08.76-.08.02-.15.05-.23.07l-23.14 6.42c-.14.04-.26.02-.39-.02-7.64-2.12-15.28-4.24-22.93-6.37-.11-.03-.23-.04-.33-.12 0-.03-.01-.07-.02-.1l-.18-1.95-.3-3.38-.24-2.71c-.1-1.15-.21-2.31-.31-3.46l-.24-2.65-.3-3.38-.24-2.71c-.1-1.14-.2-2.27-.31-3.41l-.24-2.68c-.1-1.15-.21-2.31-.31-3.46-.08-.87-.15-1.75-.23-2.62-.1-1.16-.21-2.33-.31-3.49-.08-.87-.16-1.75-.23-2.62-.1-1.15-.21-2.29-.31-3.44-.08-.88-.16-1.77-.23-2.65-.1-1.15-.21-2.31-.31-3.46l-.24-2.65-.3-3.38c-.08-.94-.17-1.88-.25-2.81-.06-.57-.13-1.12-.14-1.67zm28.8 60.19c.1.04.18 0 .27-.03.71-.19 1.41-.39 2.12-.59 1.71-.47 3.42-.95 5.13-1.42 1.61-.44 3.21-.89 4.82-1.33l4.74-1.32c.55-.15 1.1-.31 1.65-.45.17-.05.25-.13.27-.32.04-.54.1-1.08.15-1.62l.12-1.46.15-1.67.12-1.38.15-1.54.12-1.51c.07-.77.13-1.55.21-2.32.03-.26.04-.52.07-.78.05-.52.1-1.04.14-1.57l.12-1.46.15-1.62.12-1.43c.05-.49.1-.99.14-1.48.04-.5.07-1.01.12-1.51.08-.78.16-1.56.21-2.35.02-.25.05-.5.07-.76.05-.51.1-1.03.14-1.54.04-.5.08-.99.13-1.49s.1-.99.14-1.48l.12-1.51c.07-.77.13-1.55.21-2.32.03-.26.04-.52.07-.78.05-.51.1-1.03.14-1.54.04-.5.08-.99.13-1.49s.1-.99.14-1.48l.12-1.51c.07-.77.13-1.55.21-2.32.03-.26.04-.52.07-.78.05-.49.1-.99.14-1.48l.12-1.51c.06-.69.14-1.38.2-2.08.05-.59.09-1.17.16-1.76.04-.34 0-.38-.33-.39h-22.63c-.56 0-.51-.03-.51.52v54.58c.02.07-.01.18.07.28zM189.6 29.24c-.03.09-.02.17-.01.25.05.5.1.99.14 1.49.13 1.52.27 3.05.4 4.57.14 1.52.28 3.03.41 4.54.04.45.04.45.47.53 1.68.33 3.37.66 5.05 1 1.88.37 3.76.75 5.64 1.12l5.88 1.17c.31.06.63.12.96.19V3.86h-16.07c.22 2.4.44 4.79.67 7.2h8.16v24.49c-1.34-.2-2.65-.39-3.98-.58l-.51-5.73h-7.21z" style="fill:#d4b830"/><path d="M181.75-7.64c.01.55.09 1.1.13 1.65.08.94.17 1.88.25 2.81l.3 3.38.24 2.65c.1 1.15.21 2.31.31 3.46.08.88.16 1.77.23 2.65.1 1.15.21 2.29.31 3.44.08.87.16 1.75.23 2.62.1 1.16.21 2.33.31 3.49.08.87.15 1.75.23 2.62.1 1.15.21 2.31.31 3.46l.24 2.68c.1 1.14.2 2.27.31 3.41l.24 2.71.3 3.38.24 2.65c.1 1.15.21 2.31.31 3.46l.24 2.71.3 3.38.18 1.95c0 .04.01.07.02.1.1.09.22.09.33.12 7.64 2.12 15.28 4.25 22.93 6.37.13.04.25.06.39.02 7.71-2.14 15.42-4.28 23.14-6.42.08-.02.15-.05.23-.07.06-.26.06-.51.08-.76.12-1.32.23-2.63.35-3.95l.36-3.95c.1-1.12.19-2.24.29-3.36l.36-3.95c.1-1.12.19-2.24.29-3.36l.36-3.95c.1-1.11.19-2.22.29-3.33l.3-3.35c.1-1.11.19-2.22.29-3.33l.3-3.35.24-2.68c.1-1.14.2-2.27.31-3.41l.24-2.71.3-3.38.24-2.71.3-3.38.24-2.71c.03-.36.07-.72.05-1.08.02.01.06-.03.05.03v65.26h-57.62V-7.66c.05.02.09.02.13.02z" style="fill:#fffffe"/><path d="M210.55 52.55c-.08-.09-.05-.21-.05-.31V-2.34c0-.55-.06-.52.51-.52h22.63c.33 0 .37.04.33.39-.07.58-.11 1.17-.16 1.76-.06.69-.14 1.39-.2 2.08-.05.5-.08 1.01-.12 1.51-.04.5-.1.99-.14 1.48-.03.26-.04.52-.07.78-.08.77-.15 1.55-.21 2.32l-.12 1.51c-.04.5-.1.99-.14 1.48-.05.5-.08.99-.13 1.49-.05.51-.09 1.03-.14 1.54-.02.26-.04.52-.07.78-.08.77-.15 1.55-.21 2.32l-.12 1.51c-.04.5-.1.99-.14 1.48-.05.5-.08.99-.13 1.49-.05.51-.1 1.03-.14 1.54-.02.25-.05.5-.07.76-.05.78-.13 1.57-.21 2.35-.05.5-.08 1.01-.12 1.51-.04.5-.1.99-.14 1.48l-.12 1.43-.15 1.62-.12 1.46c-.05.52-.1 1.04-.14 1.57-.02.26-.04.52-.07.78-.08.77-.15 1.55-.21 2.32l-.12 1.51c-.04.51-.1 1.03-.15 1.54l-.12 1.38-.15 1.67-.12 1.46c-.05.54-.11 1.08-.15 1.62-.01.19-.09.27-.27.32-.55.14-1.1.3-1.65.45l-4.74 1.32c-1.61.45-3.21.89-4.82 1.33-1.71.47-3.42.95-5.13 1.42-.71.2-1.41.4-2.12.59-.11.05-.2.1-.29.06zm1.98-48.68c-.06.29-.05 21.53.01 21.76h9.76c-.29 3.13-.58 6.22-.87 9.33-2.99.55-5.96 1.09-8.92 1.63-.07.48-.04 7.3.03 7.5 5.2-1.18 10.4-2.37 15.62-3.56.66-7.37 1.33-14.72 2-22.11h-10.12c-.06-.38-.04-7.16.02-7.38h10.74c.21-2.4.43-4.79.63-7.18-6.32.01-12.62.01-18.9.01z" style="fill:#fcd73d"/><path d="M189.6 29.24h7.21l.51 5.73c1.33.19 2.64.39 3.98.58V11.06h-8.16c-.22-2.41-.44-4.8-.67-7.2h16.07V44.1c-.33-.06-.64-.12-.96-.19l-5.88-1.17c-1.88-.37-3.76-.75-5.64-1.12-1.68-.33-3.37-.67-5.05-1-.43-.08-.43-.08-.47-.53-.14-1.51-.28-3.03-.41-4.54-.14-1.52-.27-3.05-.4-4.57-.04-.5-.09-.99-.14-1.49-.01-.08-.02-.16.01-.25z" style="fill:#020200"/><path d="M212.53 3.87h18.91c-.2 2.39-.42 4.78-.63 7.18h-10.74c-.06.21-.07 7-.02 7.38h10.12c-.67 7.39-1.33 14.74-2 22.11-5.22 1.19-10.42 2.37-15.62 3.56-.07-.2-.09-7.02-.03-7.5 2.96-.54 5.93-1.08 8.92-1.63l.87-9.33h-9.76c-.08-.24-.08-21.48-.02-21.77z" style="fill:#4e4e4e"/></g><g><path class="st0" d="M3.97 95.71h63.35V161H-63.26V95.71H.02c-.03.08-.1.06-.16.06-.81.05-1.61.14-2.41.25-3.61.5-7.05 1.58-10.29 3.25-6.46 3.35-11.32 8.28-14.52 14.8-2.84 5.78-3.8 11.89-3.04 18.28.46 3.8 1.56 7.4 3.32 10.79 3.35 6.45 8.28 11.32 14.81 14.51 6.3 3.08 12.93 3.97 19.83 2.81 4.6-.77 8.84-2.5 12.7-5.13 4.73-3.22 8.39-7.39 10.95-12.5 1.85-3.69 2.94-7.6 3.29-11.71.29-3.38.08-6.72-.68-10.02-1.42-6.17-4.37-11.51-8.89-15.95-5.59-5.49-12.3-8.6-20.11-9.33-.28-.03-.58.03-.85-.11z"/><path class="st10" d="M3.97 95.71c.27.14.57.09.86.11 7.81.74 14.52 3.84 20.11 9.33 4.52 4.44 7.47 9.78 8.89 15.95.76 3.3.97 6.64.68 10.02-.35 4.12-1.44 8.03-3.29 11.71-2.56 5.11-6.22 9.28-10.95 12.5-3.86 2.63-8.1 4.36-12.7 5.13-6.9 1.16-13.54.27-19.83-2.81-6.53-3.2-11.46-8.06-14.81-14.51-1.76-3.39-2.86-7-3.32-10.79-.77-6.39.2-12.5 3.04-18.28 3.2-6.53 8.06-11.46 14.52-14.8 3.24-1.68 6.68-2.75 10.29-3.25.8-.11 1.6-.2 2.41-.25.06 0 .13.02.16-.06h3.94zm-19.32 38.67h4.09c2.36 0 4.25-.98 5.73-2.76 1.48-1.78 2.01-3.87 1.77-6.15-.12-1.13-.58-2.12-1.49-2.86-.98-.79-2.15-1.13-3.37-1.15-2.7-.05-5.39-.02-8.09-.03-.04 0-.08.02-.13.03-1.15 5.79-2.29 11.57-3.45 17.42h4.11c.27-1.47.55-2.98.83-4.5zm28.44-12.92c-1.15 5.79-2.29 11.57-3.45 17.42h4.11c.27-1.47.55-2.97.83-4.5h4.12c2.13.01 3.9-.83 5.35-2.34 1.69-1.78 2.34-3.95 2.15-6.37-.14-1.77-1.02-3.07-2.71-3.75-.68-.27-1.4-.45-2.13-.46-2.72-.02-5.44-.02-8.15-.02-.03 0-.05 0-.12.02zm-17.32 13.05h3.98c.25-1.21.48-2.37.72-3.54.4-1.99.81-3.99 1.2-5.98.03-.15.07-.23.24-.22 1.17.03 2.34-.05 3.5.04.76.06 1.05.44.95 1.19-.15 1.21-.42 2.4-.64 3.6-.3 1.65-.61 3.29-.92 4.95h4.35c.02-.04.03-.06.03-.08.51-3 1.01-5.99 1.52-8.99.22-1.28-.28-2.4-1.39-3.07-.83-.51-1.74-.73-2.7-.76-1.26-.04-2.53-.02-3.79-.03-.11 0-.23.04-.36-.07.27-1.48.54-2.98.82-4.49H-.81c-1.14 5.83-2.28 11.64-3.42 17.45z"/><path class="st0" d="M-15.35 134.38c-.28 1.53-.56 3.03-.83 4.5h-4.11c1.16-5.85 2.3-11.63 3.45-17.42.05-.01.09-.03.13-.03 2.7 0 5.4-.02 8.09.03 1.23.02 2.39.36 3.37 1.15.91.73 1.37 1.72 1.49 2.86.24 2.28-.29 4.37-1.77 6.15-1.48 1.78-3.38 2.76-5.73 2.76h-4.09zm.84-3.37c.34.06.67.05 1 .05.78 0 1.56.12 2.34-.06 1.33-.31 2.33-.98 2.81-2.31.25-.72.38-1.46.38-2.21 0-.69-.33-1.19-.93-1.52-.37-.2-.76-.31-1.18-.34-1.02-.08-2.04-.02-3.06-.05-.19 0-.25.06-.28.25-.36 2.05-.72 4.09-1.08 6.19zM13.09 121.46c.07-.01.09-.02.11-.02 2.72 0 5.44 0 8.15.02.73.01 1.45.18 2.13.46 1.69.68 2.56 1.98 2.71 3.75.2 2.42-.45 4.59-2.15 6.37-1.44 1.52-3.22 2.35-5.35 2.34h-4.12c-.28 1.53-.56 3.03-.83 4.5H9.63c1.17-5.85 2.31-11.64 3.46-17.42zm2.42 9.59c1.04-.04 2.04.17 3.04.01 1.87-.3 2.87-1.21 3.29-3.01.15-.64.29-1.3.15-1.95-.18-.84-.81-1.24-1.6-1.4-1.2-.24-2.41-.09-3.62-.12-.15 0-.17.09-.19.21-.35 2.06-.7 4.12-1.07 6.26zM-4.23 134.51c1.14-5.8 2.29-11.62 3.44-17.44H3.3c-.28 1.51-.55 3.01-.82 4.49.13.1.25.06.36.07 1.26.01 2.53-.02 3.79.03.95.03 1.87.25 2.7.76 1.11.68 1.61 1.8 1.39 3.07-.51 3-1.02 5.99-1.52 8.99 0 .02-.02.04-.03.08H4.82c.31-1.66.62-3.3.92-4.95.22-1.2.49-2.39.64-3.6.1-.75-.19-1.13-.95-1.19-1.17-.1-2.33-.02-3.5-.04-.17 0-.21.07-.24.22l-1.2 5.98c-.24 1.16-.47 2.32-.72 3.54-1.35-.01-2.66-.01-4-.01z"/><path class="st10" d="M-14.51 131.01c.37-2.1.72-4.14 1.07-6.19.03-.19.09-.25.28-.25 1.02.02 2.04-.04 3.06.05.42.03.82.14 1.18.34.59.33.93.83.93 1.52 0 .76-.12 1.5-.38 2.21-.47 1.33-1.47 2.01-2.81 2.31-.79.18-1.56.05-2.34.06-.32.01-.65.01-.99-.05zM15.51 131.05c.37-2.14.73-4.2 1.08-6.26.02-.11.04-.21.19-.21 1.21.04 2.42-.11 3.62.12.78.16 1.42.56 1.6 1.4.14.65 0 1.31-.15 1.95-.43 1.8-1.43 2.71-3.29 3.01-1.01.16-2.01-.05-3.05-.01z"/></g><g><path d="M133.39-54.33h-9.46c-.72-.83-1.8-.7-2.71-.93-15.09-3.77-25.41-18.14-24.09-33.62 1.31-15.38 13.72-27.81 29.1-29.13 15.46-1.33 29.83 9 33.61 24.09.27 1.08.06 2.32.93 3.23v9.46c-.84.53-.62 1.48-.82 2.23-3.43 12.75-11.57 20.67-24.29 23.99-.76.2-1.71-.16-2.27.68zm9.8-14.56c1.23-4.08 2.02-7.49 3.27-10.71 2.51-6.43 2.28-12.42-1.86-18.14-1.29-1.78-1.92-3.87-1.26-6.13.61-2.11 2.26-3.1 4.32-3.65-11.89-11.58-33.81-8.9-42.04 5.2.44.53 1.05.37 1.6.35 2.15-.05 4.31-.16 6.46-.22.81-.02 1.8-.2 1.86 1.04.05 1.17-.93 1.2-1.73 1.34-.73.13-1.47.18-2.41.28 3.41 10.15 6.78 20.17 10.36 30.84 1.24-3.71 2-6.96 3.4-9.91 2.83-5.94 2.84-11.62-.21-17.47-.98-1.88-1.21-4.18-4.15-3.89-.66.07-1.31-.41-1.22-1.26.09-.83.73-1.02 1.46-1.01.66.01 1.33.03 1.99.07 3.98.26 7.95.13 11.93-.04.87-.04 2.05-.33 2.1 1.03.05 1.25-1.11 1.24-1.99 1.37-.65.1-1.31.14-2.18.23 3.4 10.09 6.73 20.03 10.3 30.68zm-22.26 9.88c4.65 2.08 13.45 1.79 17.29-.54-2.84-7.75-5.68-15.53-8.52-23.3l-.58.06c-2.73 7.94-5.46 15.87-8.19 23.78zm-18.08-38.57C96-83.24 104.1-65.52 116.16-61.07c-4.44-12.17-8.82-24.18-13.31-36.51zm51.66-.77c-1.21 12.64-7.49 23.86-10.72 35.91 10.63-3.86 18.4-23.15 10.72-35.91z" style="fill:#2d789e"/><path class="st12" d="M160.77-90.69c-.87-.91-.66-2.15-.93-3.23-3.78-15.09-18.15-25.42-33.61-24.09-15.38 1.32-27.79 13.75-29.1 29.13-1.32 15.47 9.01 29.85 24.09 33.62.91.23 1.99.1 2.71.93H96.57v-64.19h64.19c.01 9.26.01 18.54.01 27.83zM133.39-54.33c.56-.84 1.51-.48 2.26-.68 12.72-3.32 20.87-11.24 24.29-23.99.2-.75-.02-1.7.82-2.23v26.9h-27.37z"/><path class="st12" d="M143.19-68.89c-3.57-10.64-6.91-20.58-10.28-30.65.87-.09 1.53-.13 2.18-.23.88-.14 2.04-.12 1.99-1.37-.05-1.36-1.24-1.07-2.1-1.03-3.98.17-7.95.3-11.93.04-.66-.04-1.33-.06-1.99-.07-.72-.01-1.36.18-1.46 1.01-.1.85.56 1.32 1.22 1.26 2.95-.29 3.17 2 4.15 3.89 3.04 5.85 3.03 11.53.21 17.47-1.4 2.95-2.15 6.2-3.4 9.91-3.58-10.67-6.95-20.69-10.36-30.84.94-.11 1.68-.16 2.41-.28.8-.14 1.79-.17 1.73-1.34-.06-1.24-1.06-1.06-1.86-1.04-2.15.06-4.31.17-6.46.22-.54.01-1.16.18-1.6-.35 8.23-14.1 30.15-16.79 42.04-5.2-2.06.55-3.71 1.54-4.32 3.65-.65 2.26-.02 4.35 1.26 6.13 4.14 5.72 4.37 11.71 1.86 18.14-1.27 3.19-2.06 6.59-3.29 10.68z"/><path class="st12" d="M120.93-59.01c2.72-7.92 5.45-15.85 8.18-23.78l.58-.06c2.84 7.77 5.69 15.55 8.52 23.3-3.83 2.34-12.63 2.62-17.28.54zM102.85-97.58c4.49 12.33 8.87 24.34 13.31 36.51-12.07-4.45-20.16-22.17-13.31-36.51zM154.51-98.35c7.68 12.76-.09 32.05-10.72 35.91 3.23-12.05 9.51-23.27 10.72-35.91z"/></g></svg>