<svg xmlns="http://www.w3.org/2000/svg" width="50" height="50" style="enable-background:new 0 0 50 50" xml:space="preserve"><path d="M25.04 48.94h-.12c-.05-.07-.12-.07-.19-.09l-16.2-4.5c-.26-.07-.52-.15-.79-.22L3.9 1.06h42.2c0 .08.01.15 0 .22-.05.61-.11 1.22-.16 1.83l-.3 3.34c-.09.97-.17 1.95-.26 2.92l-.3 3.34c-.09.97-.17 1.95-.26 2.92-.11 1.26-.23 2.52-.34 3.77-.1 1.12-.19 2.24-.29 3.36-.13 1.41-.26 2.82-.38 4.23-.11 1.19-.21 2.37-.32 3.56-.13 1.5-.27 2.99-.4 4.49-.13 1.49-.27 2.98-.4 4.47-.11 1.27-.22 2.54-.34 3.81-.02.27-.03.54-.09.81-.06.02-.12.04-.17.06l-6.81 1.89c-3.35.93-6.69 1.86-10.04 2.78-.08.02-.15.02-.2.08zM42.25 4.6c-.1-.06-.2-.03-.3-.03H25.37c-.41 0-.37-.04-.37.38V45.11c0 .04-.01.09.05.14.03 0 .07-.01.1-.02.22-.06.45-.12.67-.19 1.13-.32 2.27-.63 3.4-.95 1.67-.46 3.34-.93 5.02-1.39 1.51-.42 3.02-.84 4.54-1.26.21-.06.21-.07.23-.29l.09-1.11c.04-.4.07-.81.11-1.21l.09-1.03c.04-.4.07-.79.11-1.19l.09-1.05c.03-.38.07-.77.11-1.15l.09-1.07c.04-.4.07-.81.11-1.21l.09-1.07c.03-.39.07-.78.11-1.17l.09-1.03c.03-.38.07-.77.11-1.15l.09-1.07c.03-.38.07-.75.11-1.13l.09-1.09c.03-.38.08-.75.11-1.13l.09-1.09c.05-.58.1-1.16.16-1.74.02-.19.03-.38.05-.58.04-.36.07-.73.1-1.09l.09-1.11.15-1.53.09-1.13c.05-.57.1-1.14.16-1.7.02-.19.03-.38.05-.58.03-.36.07-.73.11-1.09.03-.37.05-.74.09-1.11.06-.57.11-1.15.15-1.72.01-.19.03-.37.05-.56.03-.37.07-.74.1-1.11l.09-1.09c.02-.35.06-.71.09-1.06.02-.13.02-.27.02-.4zM18.26 14.77c.04.33.03 17.81-.01 17.97-.97-.14-1.93-.28-2.91-.43-.13-1.41-.25-2.8-.38-4.2H9.65c.25 2.77.49 5.53.74 8.28.06.02.1.03.14.04 4.31.86 8.63 1.71 12.94 2.57.03.01.05 0 .08 0 .01 0 .01 0 .02-.01.01 0 .01-.01.02-.02V9.47h-11.8c.16 1.77.33 3.52.49 5.28 2 .02 3.99.02 5.98.02z" style="fill:#d4b930"/><path d="M42.25 4.6c0 .13 0 .27-.02.4-.03.36-.07.71-.11 1.07l-.09 1.09c-.03.37-.06.74-.1 1.11-.02.19-.04.37-.05.56-.04.58-.1 1.15-.15 1.72-.04.37-.06.74-.09 1.11-.03.36-.07.73-.11 1.09-.02.19-.03.38-.05.58-.06.57-.11 1.14-.16 1.7l-.09 1.13-.15 1.53-.09 1.11c-.03.36-.07.73-.1 1.09-.02.19-.03.38-.05.58-.06.58-.11 1.16-.16 1.74l-.09 1.09c-.03.38-.07.75-.11 1.13l-.09 1.09c-.03.38-.07.75-.11 1.13l-.09 1.07c-.03.38-.07.77-.11 1.15l-.09 1.03c-.04.39-.07.78-.11 1.17l-.09 1.07c-.04.4-.07.81-.11 1.21l-.09 1.07c-.03.38-.07.77-.11 1.15l-.09 1.05c-.04.4-.07.79-.11 1.19l-.09 1.03c-.04.4-.07.81-.11 1.21-.03.37-.07.74-.09 1.11-.01.21-.02.23-.23.29-1.51.42-3.02.84-4.54 1.26-1.67.46-3.34.93-5.02 1.39-1.13.31-2.27.63-3.4.95-.22.06-.45.12-.67.19-.04.01-.08.01-.1.02-.04-.06-.03-.11-.03-.15V4.95c0-.41-.03-.38.37-.38h16.58c.1 0 .2-.02.3.03zm-4.28 31.81c.01-.04.02-.05.02-.06.48-5.33.96-10.66 1.45-15.99V20.22c0-.01 0-.01-.01-.02 0-.01-.01-.01-.04-.03h-7.37v-5.4h6.92c.33 0 .66.01 1-.01.16-1.77.31-3.52.47-5.26-.23-.04-13.77-.03-13.9.01-.02.25-.03 14.12-.01 15.78 0 .05.01.09.01.14 0 .01.01.01.01.02l.03.03h7.16c-.21 2.3-.42 4.57-.64 6.85-2.2.4-4.38.8-6.55 1.19-.04.3-.03 5.35.02 5.51 3.79-.88 7.61-1.75 11.43-2.62z" style="fill:#fdd73d"/><path d="M18.26 14.77h-5.99c-.16-1.77-.33-3.52-.49-5.28h11.8v29.5c0 .01-.01.01-.01.01-.01 0-.01.01-.02.01h-.08c-4.31-.86-8.63-1.71-12.94-2.57-.04-.01-.08-.02-.14-.04-.25-2.75-.49-5.51-.74-8.28h5.31c.13 1.4.25 2.78.38 4.2.97.14 1.94.28 2.91.43.04-.16.05-17.65.01-17.98z" style="fill:#010100"/><path d="m37.97 36.41-11.46 2.61c-.05-.15-.06-5.21-.02-5.51 2.17-.4 4.35-.79 6.55-1.19.21-2.28.42-4.55.64-6.85-.61-.01-1.21 0-1.8 0h-5.36c-.02-.02-.03-.02-.03-.03 0 0-.01-.01-.01-.02 0-.05-.01-.09-.01-.14-.02-1.66-.01-15.53.01-15.78.14-.04 13.67-.05 13.9-.01-.15 1.75-.31 3.49-.47 5.26-.34.01-.67 0-1 .01h-6.92v5.4h7.37c.03.02.04.03.04.03 0 .01 0 .01.01.02V20.35c-.48 5.33-.96 10.66-1.45 15.99.03.02.02.04.01.07z" style="fill:#4e4e4e"/></svg>