<svg version="1.1" id="Layer_1" xmlns="http://www.w3.org/2000/svg" x="0" y="0" width="50" height="50" style="enable-background:new 0 0 50 50" xml:space="preserve"><style>.st5{fill:#505c94}.st6{fill:#fff}</style><path d="M227.17-129.96h57.45c.02.36-.02.72-.05 1.08l-.24 2.71-.3 3.38-.24 2.71-.3 3.38-.24 2.71c-.1 1.14-.2 2.27-.31 3.41l-.24 2.68-.3 3.35c-.1 1.11-.19 2.22-.29 3.33l-.3 3.35c-.1 1.11-.19 2.22-.29 3.33l-.36 3.95c-.1 1.12-.19 2.24-.29 3.36l-.36 3.95c-.1 1.12-.19 2.24-.29 3.36l-.36 3.95c-.12 1.32-.23 2.63-.35 3.95-.02.25-.02.51-.08.76-.08.02-.15.05-.23.07l-23.14 6.42c-.14.04-.26.02-.39-.02-7.64-2.12-15.28-4.24-22.93-6.37-.11-.03-.23-.04-.33-.12 0-.03-.01-.07-.02-.1l-.18-1.95-.3-3.38-.24-2.71c-.1-1.15-.21-2.31-.31-3.46l-.24-2.65-.3-3.38-.24-2.71c-.1-1.14-.2-2.27-.31-3.41l-.24-2.68c-.1-1.15-.21-2.31-.31-3.46-.08-.87-.15-1.75-.23-2.62-.1-1.16-.21-2.33-.31-3.49-.08-.87-.16-1.75-.23-2.62-.1-1.15-.21-2.29-.31-3.44-.08-.88-.16-1.77-.23-2.65-.1-1.15-.21-2.31-.31-3.46l-.24-2.65-.3-3.38c-.08-.94-.17-1.88-.25-2.81-.06-.57-.14-1.12-.14-1.67zm28.8 60.19c.1.04.18 0 .27-.03.71-.19 1.41-.39 2.12-.59 1.71-.47 3.42-.95 5.13-1.42 1.61-.44 3.21-.89 4.82-1.33l4.74-1.32c.55-.15 1.1-.31 1.65-.45.17-.05.25-.13.27-.32.04-.54.1-1.08.15-1.62l.12-1.46.15-1.67.12-1.38.15-1.54.12-1.51c.07-.77.13-1.55.21-2.32.03-.26.04-.52.07-.78.05-.52.1-1.04.14-1.57l.12-1.46.15-1.62.12-1.43c.05-.49.1-.99.14-1.48.04-.5.07-1.01.12-1.51.08-.78.16-1.56.21-2.35.02-.25.05-.5.07-.76.05-.51.1-1.03.14-1.54.04-.5.08-.99.13-1.49s.1-.99.14-1.48l.12-1.51c.07-.77.13-1.55.21-2.32.03-.26.04-.52.07-.78.05-.51.1-1.03.14-1.54.04-.5.08-.99.13-1.49s.1-.99.14-1.48l.12-1.51c.07-.77.13-1.55.21-2.32.03-.26.04-.52.07-.78.05-.49.1-.99.14-1.48l.12-1.51c.06-.69.14-1.38.2-2.08.05-.59.09-1.17.16-1.76.04-.34 0-.38-.33-.39h-22.63c-.56 0-.51-.03-.51.52v54.58c.02.07-.01.18.07.28zm-20.95-23.31c-.03.09-.02.17-.01.25.05.5.1.99.14 1.49.13 1.52.27 3.05.4 4.57.14 1.52.28 3.03.41 4.54.04.45.04.45.47.53 1.68.33 3.37.66 5.05 1 1.88.37 3.76.75 5.64 1.12l5.88 1.17c.31.06.63.12.96.19v-40.24h-16.07c.22 2.4.44 4.79.67 7.2h8.16v24.49c-1.34-.2-2.65-.39-3.98-.58l-.51-5.73h-7.21z" style="fill:#d4b830"/><path d="M227.17-129.96c.01.55.09 1.1.13 1.65.08.94.17 1.88.25 2.81l.3 3.38.24 2.65c.1 1.15.21 2.31.31 3.46.08.88.16 1.77.23 2.65.1 1.15.21 2.29.31 3.44.08.87.16 1.75.23 2.62.1 1.16.21 2.33.31 3.49.08.87.15 1.75.23 2.62.1 1.15.21 2.31.31 3.46l.24 2.68c.1 1.14.2 2.27.31 3.41l.24 2.71.3 3.38.24 2.65c.1 1.15.21 2.31.31 3.46l.24 2.71.3 3.38.18 1.95c0 .04.01.07.02.1.1.09.22.09.33.12 7.64 2.12 15.28 4.25 22.93 6.37.13.04.25.06.39.02 7.71-2.14 15.42-4.28 23.14-6.42.08-.02.15-.05.23-.07.06-.26.06-.51.08-.76.12-1.32.23-2.63.35-3.95l.36-3.95c.1-1.12.19-2.24.29-3.36l.36-3.95c.1-1.12.19-2.24.29-3.36l.36-3.95c.1-1.11.19-2.22.29-3.33l.3-3.35c.1-1.11.19-2.22.29-3.33l.3-3.35.24-2.68c.1-1.14.2-2.27.31-3.41l.24-2.71.3-3.38.24-2.71.3-3.38.24-2.71c.03-.36.07-.72.05-1.08.02.01.06-.03.05.03v65.26h-57.62v-65.29c.05.02.09.02.13.02z" style="fill:#fffffe"/><path d="M255.97-69.77c-.08-.09-.05-.21-.05-.31v-54.58c0-.55-.06-.52.51-.52h22.63c.33 0 .37.04.33.39-.07.58-.11 1.17-.16 1.76-.06.69-.14 1.39-.2 2.08-.05.5-.08 1.01-.12 1.51-.04.5-.1.99-.14 1.48-.02.26-.04.52-.07.78-.08.77-.15 1.55-.21 2.32l-.12 1.51c-.04.5-.1.99-.14 1.48-.05.5-.08.99-.13 1.49-.05.51-.09 1.03-.14 1.54-.02.26-.04.52-.07.78-.08.77-.15 1.55-.21 2.32l-.12 1.51c-.04.5-.1.99-.14 1.48-.05.5-.08.99-.13 1.49-.05.51-.1 1.03-.14 1.54-.02.25-.05.5-.07.76-.05.78-.13 1.57-.21 2.35-.05.5-.08 1.01-.12 1.51-.04.5-.1.99-.14 1.48l-.12 1.43-.15 1.62-.12 1.46c-.05.52-.1 1.04-.14 1.57-.02.26-.04.52-.07.78-.08.77-.15 1.55-.21 2.32l-.12 1.51c-.04.51-.1 1.03-.15 1.54l-.12 1.38-.15 1.67-.12 1.46c-.05.54-.11 1.08-.15 1.62-.01.19-.09.27-.27.32-.55.14-1.1.3-1.65.45l-4.74 1.32c-1.61.45-3.21.89-4.82 1.33-1.71.47-3.42.95-5.13 1.42-.71.2-1.41.4-2.12.59-.11.05-.2.1-.29.06zm1.98-48.68c-.06.29-.05 21.53.01 21.76h9.76c-.29 3.13-.58 6.22-.87 9.33-2.99.55-5.96 1.09-8.92 1.63-.07.48-.04 7.3.03 7.5 5.2-1.18 10.4-2.37 15.62-3.56.67-7.37 1.33-14.72 2-22.11h-10.12c-.06-.38-.04-7.16.02-7.38h10.74c.21-2.4.43-4.79.63-7.18-6.33.01-12.62.01-18.9.01z" style="fill:#fcd73d"/><path d="M235.02-93.08h7.21l.51 5.73c1.33.19 2.64.39 3.98.58v-24.49h-8.16c-.22-2.41-.44-4.8-.67-7.2h16.07v40.24c-.33-.06-.64-.12-.96-.19l-5.88-1.17c-1.88-.37-3.76-.75-5.64-1.12-1.68-.33-3.37-.67-5.05-1-.43-.08-.43-.08-.47-.53-.14-1.51-.28-3.03-.41-4.54-.14-1.52-.27-3.05-.4-4.57-.04-.5-.09-.99-.14-1.49-.01-.08-.03-.16.01-.25z" style="fill:#020200"/><path d="M257.95-118.45h18.91c-.2 2.39-.42 4.78-.63 7.18h-10.74c-.06.21-.07 7-.02 7.38h10.12c-.67 7.39-1.33 14.74-2 22.11-5.22 1.19-10.42 2.37-15.62 3.56-.07-.2-.09-7.02-.03-7.5 2.96-.54 5.93-1.08 8.92-1.63l.87-9.33h-9.76c-.08-.24-.08-21.48-.02-21.77z" style="fill:#4e4e4e"/><g><path class="st5" d="M26.46.89c.2.1.42.06.64.08 5.77.54 10.73 2.84 14.86 6.9 3.34 3.28 5.52 7.23 6.57 11.79.56 2.44.72 4.91.51 7.4-.26 3.04-1.06 5.93-2.43 8.66-1.89 3.78-4.6 6.86-8.09 9.24-2.85 1.94-5.98 3.22-9.39 3.79-5.1.86-10 .2-14.65-2.08-4.83-2.36-8.47-5.95-10.94-10.72-1.3-2.51-2.11-5.17-2.45-7.97-.57-4.72.15-9.24 2.24-13.51C5.68 9.64 9.27 6 14.04 3.53c2.39-1.24 4.93-2.03 7.6-2.41.59-.08 1.18-.15 1.78-.18.04 0 .1.01.12-.05h2.92zM12.18 29.47h3.02c1.74 0 3.14-.72 4.24-2.04 1.09-1.32 1.48-2.86 1.3-4.55-.09-.84-.43-1.57-1.1-2.11-.73-.59-1.59-.83-2.49-.85-1.99-.03-3.99-.02-5.98-.02-.03 0-.06.01-.1.02-.85 4.28-1.69 8.55-2.55 12.87h3.04c.21-1.08.42-2.2.62-3.32zm21.02-9.55c-.85 4.28-1.69 8.55-2.55 12.87h3.04c.2-1.08.4-2.2.61-3.33h3.05c1.57.01 2.88-.61 3.95-1.73 1.25-1.32 1.73-2.92 1.59-4.71-.11-1.31-.75-2.27-2-2.77a4.57 4.57 0 0 0-1.58-.34c-2.01-.02-4.02-.01-6.03-.02-.02.01-.03.02-.08.03zm-12.8 9.64h2.94c.18-.9.36-1.75.53-2.61.3-1.47.6-2.94.89-4.42.02-.11.05-.17.18-.16.86.02 1.73-.04 2.59.03.56.05.77.32.7.88-.11.89-.31 1.77-.47 2.66-.22 1.22-.45 2.43-.68 3.66h3.22c.01-.03.02-.04.02-.06.38-2.21.75-4.43 1.13-6.64.16-.94-.21-1.77-1.03-2.27-.61-.37-1.29-.54-1.99-.56-.93-.03-1.87-.01-2.8-.02-.08 0-.17.03-.27-.05.2-1.1.4-2.2.61-3.32h-3.02c-.86 4.29-1.71 8.59-2.55 12.88z"/><path class="st6" d="M12.18 29.47c-.21 1.13-.41 2.24-.61 3.33H8.53c.86-4.32 1.7-8.59 2.55-12.87.04-.01.07-.02.1-.02 1.99 0 3.99-.02 5.98.02.91.02 1.77.26 2.49.85.67.54 1.01 1.27 1.1 2.11.18 1.69-.21 3.23-1.3 4.55-1.09 1.32-2.5 2.04-4.24 2.04h-2.8c-.07-.01-.14-.01-.23-.01zm.62-2.49c.25.05.5.04.74.04.58 0 1.15.09 1.73-.04.99-.23 1.73-.72 2.07-1.71.19-.53.28-1.08.28-1.64 0-.51-.25-.88-.69-1.12-.27-.15-.57-.23-.87-.25-.75-.06-1.51-.02-2.26-.03-.14 0-.18.05-.21.18-.25 1.51-.52 3.02-.79 4.57zM33.2 19.92c.05-.01.06-.02.08-.02 2.01 0 4.02 0 6.03.02.54 0 1.07.13 1.58.34 1.25.5 1.9 1.46 2 2.77.15 1.79-.34 3.39-1.59 4.71-1.07 1.12-2.38 1.74-3.95 1.73H34.3c-.21 1.13-.41 2.24-.61 3.33h-3.04c.86-4.33 1.7-8.61 2.55-12.88zm1.79 7.09c.77-.03 1.51.12 2.25.01 1.38-.22 2.12-.89 2.43-2.22.11-.47.21-.96.11-1.44-.13-.62-.6-.92-1.18-1.03-.88-.18-1.78-.06-2.67-.09-.11 0-.12.07-.14.15-.27 1.51-.53 3.03-.8 4.62zM20.4 29.56c.84-4.29 1.69-8.59 2.54-12.89h3.02c-.2 1.12-.41 2.22-.61 3.32.1.08.19.05.27.05.93.01 1.87-.01 2.8.02.7.02 1.38.19 1.99.56.82.5 1.19 1.33 1.03 2.27-.38 2.21-.75 4.43-1.13 6.64 0 .01-.01.03-.02.06h-3.22c.23-1.23.46-2.44.68-3.66.16-.89.36-1.76.47-2.66.07-.56-.14-.83-.7-.88-.86-.07-1.73-.01-2.59-.03-.12 0-.15.05-.18.16-.29 1.47-.59 2.95-.89 4.42-.17.86-.35 1.72-.53 2.61-.97.01-1.94.01-2.93.01z"/><path class="st5" d="M12.8 26.98c.27-1.55.54-3.06.79-4.57.02-.14.07-.19.21-.18.75.02 1.51-.03 2.26.03.31.03.6.1.87.25.44.24.68.61.69 1.12 0 .56-.09 1.11-.28 1.64-.35.99-1.09 1.48-2.07 1.71-.58.13-1.15.04-1.73.04-.24 0-.48 0-.74-.04zM34.99 27.01c.27-1.58.54-3.1.8-4.63.01-.08.03-.15.14-.15.89.03 1.79-.08 2.67.09.58.11 1.05.41 1.18 1.03.1.48 0 .97-.11 1.44-.32 1.33-1.05 2-2.43 2.22-.75.12-1.49-.03-2.25 0z"/></g></svg>