<svg version="1.1" id="Layer_1" xmlns="http://www.w3.org/2000/svg" x="0" y="0" width="50" height="50" style="enable-background:new 0 0 50 50" xml:space="preserve"><style>.st5{fill:#fff}.st6{fill:#505c94}</style><path d="M227.17-129.96h57.45c.02.36-.02.72-.05 1.08l-.24 2.71-.3 3.38-.24 2.71-.3 3.38-.24 2.71c-.1 1.14-.2 2.27-.31 3.41l-.24 2.68-.3 3.35c-.1 1.11-.19 2.22-.29 3.33l-.3 3.35c-.1 1.11-.19 2.22-.29 3.33l-.36 3.95c-.1 1.12-.19 2.24-.29 3.36l-.36 3.95c-.1 1.12-.19 2.24-.29 3.36l-.36 3.95c-.12 1.32-.23 2.63-.35 3.95-.02.25-.02.51-.08.76-.08.02-.15.05-.23.07l-23.14 6.42c-.14.04-.26.02-.39-.02-7.64-2.12-15.28-4.24-22.93-6.37-.11-.03-.23-.04-.33-.12 0-.03-.01-.07-.02-.1l-.18-1.95-.3-3.38-.24-2.71c-.1-1.15-.21-2.31-.31-3.46l-.24-2.65-.3-3.38-.24-2.71c-.1-1.14-.2-2.27-.31-3.41l-.24-2.68c-.1-1.15-.21-2.31-.31-3.46-.08-.87-.15-1.75-.23-2.62-.1-1.16-.21-2.33-.31-3.49-.08-.87-.16-1.75-.23-2.62-.1-1.15-.21-2.29-.31-3.44-.08-.88-.16-1.77-.23-2.65-.1-1.15-.21-2.31-.31-3.46l-.24-2.65-.3-3.38c-.08-.94-.17-1.88-.25-2.81-.06-.57-.14-1.12-.14-1.67zm28.8 60.19c.1.04.18 0 .27-.03.71-.19 1.41-.39 2.12-.59 1.71-.47 3.42-.95 5.13-1.42 1.61-.44 3.21-.89 4.82-1.33l4.74-1.32c.55-.15 1.1-.31 1.65-.45.17-.05.25-.13.27-.32.04-.54.1-1.08.15-1.62l.12-1.46.15-1.67.12-1.38.15-1.54.12-1.51c.07-.77.13-1.55.21-2.32.03-.26.04-.52.07-.78.05-.52.1-1.04.14-1.57l.12-1.46.15-1.62.12-1.43c.05-.49.1-.99.14-1.48.04-.5.07-1.01.12-1.51.08-.78.16-1.56.21-2.35.02-.25.05-.5.07-.76.05-.51.1-1.03.14-1.54.04-.5.08-.99.13-1.49s.1-.99.14-1.48l.12-1.51c.07-.77.13-1.55.21-2.32.03-.26.04-.52.07-.78.05-.51.1-1.03.14-1.54.04-.5.08-.99.13-1.49s.1-.99.14-1.48l.12-1.51c.07-.77.13-1.55.21-2.32.03-.26.04-.52.07-.78.05-.49.1-.99.14-1.48l.12-1.51c.06-.69.14-1.38.2-2.08.05-.59.09-1.17.16-1.76.04-.34 0-.38-.33-.39h-22.63c-.56 0-.51-.03-.51.52v54.58c.02.07-.01.18.07.28zm-20.95-23.31c-.03.09-.02.17-.01.25.05.5.1.99.14 1.49.13 1.52.27 3.05.4 4.57.14 1.52.28 3.03.41 4.54.04.45.04.45.47.53 1.68.33 3.37.66 5.05 1 1.88.37 3.76.75 5.64 1.12l5.88 1.17c.31.06.63.12.96.19v-40.24h-16.07c.22 2.4.44 4.79.67 7.2h8.16v24.49c-1.34-.2-2.65-.39-3.98-.58l-.51-5.73h-7.21z" style="fill:#d4b830"/><path d="M227.17-129.96c.01.55.09 1.1.13 1.65.08.94.17 1.88.25 2.81l.3 3.38.24 2.65c.1 1.15.21 2.31.31 3.46.08.88.16 1.77.23 2.65.1 1.15.21 2.29.31 3.44.08.87.16 1.75.23 2.62.1 1.16.21 2.33.31 3.49.08.87.15 1.75.23 2.62.1 1.15.21 2.31.31 3.46l.24 2.68c.1 1.14.2 2.27.31 3.41l.24 2.71.3 3.38.24 2.65c.1 1.15.21 2.31.31 3.46l.24 2.71.3 3.38.18 1.95c0 .04.01.07.02.1.1.09.22.09.33.12 7.64 2.12 15.28 4.25 22.93 6.37.13.04.25.06.39.02 7.71-2.14 15.42-4.28 23.14-6.42.08-.02.15-.05.23-.07.06-.26.06-.51.08-.76.12-1.32.23-2.63.35-3.95l.36-3.95c.1-1.12.19-2.24.29-3.36l.36-3.95c.1-1.12.19-2.24.29-3.36l.36-3.95c.1-1.11.19-2.22.29-3.33l.3-3.35c.1-1.11.19-2.22.29-3.33l.3-3.35.24-2.68c.1-1.14.2-2.27.31-3.41l.24-2.71.3-3.38.24-2.71.3-3.38.24-2.71c.03-.36.07-.72.05-1.08.02.01.06-.03.05.03v65.26h-57.62v-65.29c.05.02.09.02.13.02z" style="fill:#fffffe"/><path d="M255.97-69.77c-.08-.09-.05-.21-.05-.31v-54.58c0-.55-.06-.52.51-.52h22.63c.33 0 .37.04.33.39-.07.58-.11 1.17-.16 1.76-.06.69-.14 1.39-.2 2.08-.05.5-.08 1.01-.12 1.51-.04.5-.1.99-.14 1.48-.02.26-.04.52-.07.78-.08.77-.15 1.55-.21 2.32l-.12 1.51c-.04.5-.1.99-.14 1.48-.05.5-.08.99-.13 1.49-.05.51-.09 1.03-.14 1.54-.02.26-.04.52-.07.78-.08.77-.15 1.55-.21 2.32l-.12 1.51c-.04.5-.1.99-.14 1.48-.05.5-.08.99-.13 1.49-.05.51-.1 1.03-.14 1.54-.02.25-.05.5-.07.76-.05.78-.13 1.57-.21 2.35-.05.5-.08 1.01-.12 1.51-.04.5-.1.99-.14 1.48l-.12 1.43-.15 1.62-.12 1.46c-.05.52-.1 1.04-.14 1.57-.02.26-.04.52-.07.78-.08.77-.15 1.55-.21 2.32l-.12 1.51c-.04.51-.1 1.03-.15 1.54l-.12 1.38-.15 1.67-.12 1.46c-.05.54-.11 1.08-.15 1.62-.01.19-.09.27-.27.32-.55.14-1.1.3-1.65.45l-4.74 1.32c-1.61.45-3.21.89-4.82 1.33-1.71.47-3.42.95-5.13 1.42-.71.2-1.41.4-2.12.59-.11.05-.2.1-.29.06zm1.98-48.68c-.06.29-.05 21.53.01 21.76h9.76c-.29 3.13-.58 6.22-.87 9.33-2.99.55-5.96 1.09-8.92 1.63-.07.48-.04 7.3.03 7.5 5.2-1.18 10.4-2.37 15.62-3.56.67-7.37 1.33-14.72 2-22.11h-10.12c-.06-.38-.04-7.16.02-7.38h10.74c.21-2.4.43-4.79.63-7.18-6.33.01-12.62.01-18.9.01z" style="fill:#fcd73d"/><path d="M235.02-93.08h7.21l.51 5.73c1.33.19 2.64.39 3.98.58v-24.49h-8.16c-.22-2.41-.44-4.8-.67-7.2h16.07v40.24c-.33-.06-.64-.12-.96-.19l-5.88-1.17c-1.88-.37-3.76-.75-5.64-1.12-1.68-.33-3.37-.67-5.05-1-.43-.08-.43-.08-.47-.53-.14-1.51-.28-3.03-.41-4.54-.14-1.52-.27-3.05-.4-4.57-.04-.5-.09-.99-.14-1.49-.01-.08-.03-.16.01-.25z" style="fill:#020200"/><path d="M257.95-118.45h18.91c-.2 2.39-.42 4.78-.63 7.18h-10.74c-.06.21-.07 7-.02 7.38h10.12c-.67 7.39-1.33 14.74-2 22.11-5.22 1.19-10.42 2.37-15.62 3.56-.07-.2-.09-7.02-.03-7.5 2.96-.54 5.93-1.08 8.92-1.63l.87-9.33h-9.76c-.08-.24-.08-21.48-.02-21.77z" style="fill:#4e4e4e"/><g><path class="st5" d="M3.97 95.71h63.35V161H-63.26V95.71H.02c-.03.08-.1.06-.16.06-.81.05-1.61.14-2.41.25-3.61.5-7.05 1.58-10.29 3.25-6.46 3.35-11.32 8.28-14.52 14.8-2.84 5.78-3.8 11.89-3.04 18.28.46 3.8 1.56 7.4 3.32 10.79 3.35 6.45 8.28 11.32 14.81 14.51 6.3 3.08 12.93 3.97 19.83 2.81 4.6-.77 8.84-2.5 12.7-5.13 4.73-3.22 8.39-7.39 10.95-12.5 1.85-3.69 2.94-7.6 3.29-11.71.29-3.38.08-6.72-.68-10.02-1.42-6.17-4.37-11.51-8.89-15.95-5.59-5.49-12.3-8.6-20.11-9.33-.28-.03-.58.03-.85-.11z"/><path class="st6" d="M3.97 95.71c.27.14.57.09.86.11 7.81.74 14.52 3.84 20.11 9.33 4.52 4.44 7.47 9.78 8.89 15.95.76 3.3.97 6.64.68 10.02-.35 4.12-1.44 8.03-3.29 11.71-2.56 5.11-6.22 9.28-10.95 12.5-3.86 2.63-8.1 4.36-12.7 5.13-6.9 1.16-13.54.27-19.83-2.81-6.53-3.2-11.46-8.06-14.81-14.51-1.76-3.39-2.86-7-3.32-10.79-.77-6.39.2-12.5 3.04-18.28 3.2-6.53 8.06-11.46 14.52-14.8 3.24-1.68 6.68-2.75 10.29-3.25.8-.11 1.6-.2 2.41-.25.06 0 .13.02.16-.06h3.94zm-19.32 38.67h4.09c2.36 0 4.25-.98 5.73-2.76 1.48-1.78 2.01-3.87 1.77-6.15-.12-1.13-.58-2.12-1.49-2.86-.98-.79-2.15-1.13-3.37-1.15-2.7-.05-5.39-.02-8.09-.03-.04 0-.08.02-.13.03-1.15 5.79-2.29 11.57-3.45 17.42h4.11c.27-1.47.55-2.98.83-4.5zm28.44-12.92c-1.15 5.79-2.29 11.57-3.45 17.42h4.11c.27-1.47.55-2.97.83-4.5h4.12c2.13.01 3.9-.83 5.35-2.34 1.69-1.78 2.34-3.95 2.15-6.37-.14-1.77-1.02-3.07-2.71-3.75-.68-.27-1.4-.45-2.13-.46-2.72-.02-5.44-.02-8.15-.02-.03 0-.05 0-.12.02zm-17.32 13.05h3.98c.25-1.21.48-2.37.72-3.54.4-1.99.81-3.99 1.2-5.98.03-.15.07-.23.24-.22 1.17.03 2.34-.05 3.5.04.76.06 1.05.44.95 1.19-.15 1.21-.42 2.4-.64 3.6-.3 1.65-.61 3.29-.92 4.95h4.35c.02-.04.03-.06.03-.08.51-3 1.01-5.99 1.52-8.99.22-1.28-.28-2.4-1.39-3.07-.83-.51-1.74-.73-2.7-.76-1.26-.04-2.53-.02-3.79-.03-.11 0-.23.04-.36-.07.27-1.48.54-2.98.82-4.49H-.81c-1.14 5.83-2.28 11.64-3.42 17.45z"/><path class="st5" d="M-15.35 134.38c-.28 1.53-.56 3.03-.83 4.5h-4.11c1.16-5.85 2.3-11.63 3.45-17.42.05-.01.09-.03.13-.03 2.7 0 5.4-.02 8.09.03 1.23.02 2.39.36 3.37 1.15.91.73 1.37 1.72 1.49 2.86.24 2.28-.29 4.37-1.77 6.15-1.48 1.78-3.38 2.76-5.73 2.76h-4.09zm.84-3.37c.34.06.67.05 1 .05.78 0 1.56.12 2.34-.06 1.33-.31 2.33-.98 2.81-2.31.25-.72.38-1.46.38-2.21 0-.69-.33-1.19-.93-1.52-.37-.2-.76-.31-1.18-.34-1.02-.08-2.04-.02-3.06-.05-.19 0-.25.06-.28.25-.36 2.05-.72 4.09-1.08 6.19zM13.09 121.46c.07-.01.09-.02.11-.02 2.72 0 5.44 0 8.15.02.73.01 1.45.18 2.13.46 1.69.68 2.56 1.98 2.71 3.75.2 2.42-.45 4.59-2.15 6.37-1.44 1.52-3.22 2.35-5.35 2.34h-4.12c-.28 1.53-.56 3.03-.83 4.5H9.63c1.17-5.85 2.31-11.64 3.46-17.42zm2.42 9.59c1.04-.04 2.04.17 3.04.01 1.87-.3 2.87-1.21 3.29-3.01.15-.64.29-1.3.15-1.95-.18-.84-.81-1.24-1.6-1.4-1.2-.24-2.41-.09-3.62-.12-.15 0-.17.09-.19.21-.35 2.06-.7 4.12-1.07 6.26zM-4.23 134.51c1.14-5.8 2.29-11.62 3.44-17.44H3.3c-.28 1.51-.55 3.01-.82 4.49.13.1.25.06.36.07 1.26.01 2.53-.02 3.79.03.95.03 1.87.25 2.7.76 1.11.68 1.61 1.8 1.39 3.07-.51 3-1.02 5.99-1.52 8.99 0 .02-.02.04-.03.08H4.82c.31-1.66.62-3.3.92-4.95.22-1.2.49-2.39.64-3.6.1-.75-.19-1.13-.95-1.19-1.17-.1-2.33-.02-3.5-.04-.17 0-.21.07-.24.22l-1.2 5.98c-.24 1.16-.47 2.32-.72 3.54-1.35-.01-2.66-.01-4-.01z"/><path class="st6" d="M-14.51 131.01c.37-2.1.72-4.14 1.07-6.19.03-.19.09-.25.28-.25 1.02.02 2.04-.04 3.06.05.42.03.82.14 1.18.34.59.33.93.83.93 1.52 0 .76-.12 1.5-.38 2.21-.47 1.33-1.47 2.01-2.81 2.31-.79.18-1.56.05-2.34.06-.32.01-.65.01-.99-.05zM15.51 131.05c.37-2.14.73-4.2 1.08-6.26.02-.11.04-.21.19-.21 1.21.04 2.42-.11 3.62.12.78.16 1.42.56 1.6 1.4.14.65 0 1.31-.15 1.95-.43 1.8-1.43 2.71-3.29 3.01-1.01.16-2.01-.05-3.05-.01z"/></g><path d="M28.25 48.08h-6.84c-.52-.6-1.3-.51-1.96-.67C8.54 44.67 1.07 34.28 2.02 23.08c.95-11.13 9.93-20.12 21.05-21.07 11.18-.96 21.58 6.51 24.32 17.43.19.78.04 1.68.67 2.33v6.85c-.61.38-.45 1.07-.6 1.61-2.48 9.22-8.37 14.95-17.57 17.36-.54.14-1.23-.12-1.64.49zm7.1-10.54c.89-2.96 1.46-5.42 2.37-7.74 1.81-4.65 1.65-8.98-1.34-13.12-.93-1.29-1.39-2.8-.91-4.43.44-1.53 1.63-2.24 3.13-2.64C30 1.23 14.14 3.17 8.19 13.37c.32.38.76.26 1.16.25 1.56-.04 3.12-.12 4.68-.16.58-.02 1.31-.15 1.35.75.04.85-.67.87-1.25.97-.53.09-1.06.13-1.74.2 2.47 7.34 4.9 14.59 7.5 22.31.9-2.68 1.44-5.04 2.46-7.17 2.05-4.3 2.05-8.41-.15-12.64-.71-1.36-.87-3.02-3-2.81-.48.05-.95-.29-.88-.91.07-.6.53-.74 1.05-.73.48.01.96.02 1.44.05 2.88.19 5.75.1 8.63-.03.63-.03 1.48-.24 1.52.75.04.91-.8.89-1.44.99-.47.07-.94.1-1.58.17 2.41 7.29 4.82 14.48 7.41 22.18zm-16.11 7.15c3.36 1.5 9.73 1.3 12.51-.39-2.05-5.61-4.11-11.23-6.17-16.86-.14.01-.28.03-.42.04-1.97 5.75-3.95 11.49-5.92 17.21zM6.16 16.79c-4.95 10.37.9 23.19 9.63 26.42-3.21-8.81-6.38-17.5-9.63-26.42zm37.37-.56c-.87 9.14-5.42 17.26-7.75 25.98 7.69-2.8 13.31-16.75 7.75-25.98z" style="fill:#2d789e"/></svg>