<?xml version="1.0" encoding="utf-8"?>
<!-- Generator: Adobe Illustrator 26.0.0, SVG Export Plug-In . SVG Version: 6.00 Build 0)  -->
<svg version="1.1" id="Layer_1" xmlns="http://www.w3.org/2000/svg" xmlns:xlink="http://www.w3.org/1999/xlink" x="0px" y="0px"
	width="512" height="512" viewBox="0 0 512 512" style="enable-background:new 0 0 512 512;" xml:space="preserve">
<style type="text/css">
	.st0{fill:#1079BF;}
	.st1{fill:#FFFFFF;}
	.st2{fill:#3197D4;}
</style>
<g>
	<path class="st0" d="M81.28,61h349.44c-0.91,10.63-1.72,21.05-2.63,31.47c-2.33,27.02-4.76,53.94-7.19,80.96
		c-2.73,31.17-5.57,62.24-8.3,93.41c-2.33,26.21-4.66,52.52-6.88,78.73c-1.82,20.44-3.74,40.88-5.26,61.43
		c-0.3,3.95-2.83,4.15-5.26,4.86c-24.59,7.08-49.18,14.07-73.88,21.05c-20.04,5.77-40.18,11.54-60.21,17.2
		c-2.73,0.81-5.36,1.32-8.4,0.4c-45.34-13.16-90.67-26.11-136.11-38.96c-3.54-1.01-4.35-2.53-4.66-5.87
		c-4.66-53.74-9.41-107.57-14.17-161.31L83.51,83.06C82.7,75.98,81.99,68.69,81.28,61z M255.95,142.77h-94.52
		c1.11,14.37,2.13,27.73,3.14,41.39h6.88c28.13,0.1,56.27,0.1,84.4,0.2v39.27c-2.43,1.42-4.45,0.91-6.48,0.91
		c-11.64,0-23.17,0-34.81,0.1c-1.92,0-4.05-0.81-5.57,1.11l1.21,35.72c-1.21,4.76,1.01,5.87,5.46,5.77c11.44-0.2,22.87-0.1,34.31,0
		c1.92,0,4.05-0.71,5.97,1.32v54.65c0,1.72-0.51,2.83-2.33,3.04c-11.84-3.95-23.68-8.1-35.62-11.84c-3.64-1.11-4.86-2.83-4.76-6.58
		c0.2-6.78,0.1-13.66,0.1-20.44h-40.99c-0.2,0.61-0.51,1.01-0.51,1.32c0.81,17.2,1.72,34.51,2.53,51.71
		c0.1,3.04,2.02,3.74,4.45,4.55c25.3,8.3,50.6,16.7,75.9,25.1c1.42,1.92,1.11,4.15,1.11,6.27v36.53c0,1.92-0.71,4.05,0.81,5.67
		c1.42,0.61,2.53,0.2,3.85-0.2c15.99-4.55,32.08-9.01,48.07-13.66c19.33-5.46,38.66-11.03,57.99-16.6c2.33-0.71,4.96-1.01,5.06-4.66
		c0.1-5.57,0.61-11.23,1.11-16.8c0.71-9.72,1.52-19.43,2.33-29.25c1.32-15.28,2.83-30.56,4.15-45.84
		c0.91-9.92,1.52-19.83,2.43-29.75c1.32-14.78,2.83-29.45,4.15-44.22c0.91-9.92,1.52-19.83,2.33-29.75
		c1.32-15.89,2.73-31.68,4.25-47.56c0.91-10.12,2.13-20.14,2.93-30.16c0.51-6.07,0.81-12.04,1.11-18.22c-1.32-0.2-2.02-0.4-2.73-0.4
		c-44.53,0-89.06,0-133.68-0.1c-4.05,0-4.25,2.02-4.25,5.06C256.05,111.8,255.95,127.29,255.95,142.77L255.95,142.77z"/>
	<path class="st1" d="M210.31,261.47l-1.21-35.72c29.65-0.1,59.3-0.2,88.85-0.1c4.25,0,5.87-1.21,5.97-5.46
		c0.1-4.76,1.01-9.41,0.91-14.17c-0.1-7.19,2.02-14.27,1.01-21.76h-49.99c-28.13-0.1-56.27-0.1-84.4-0.2h-6.88
		c-1.01-13.66-2.02-27.02-3.14-41.39h187.32c0.3,1.42,0.61,1.92,0.61,2.43c-1.01,17.2-2.02,34.41-3.14,51.61
		c-1.72,27.02-3.44,53.94-5.06,80.96c-1.21,20.14-2.43,40.28-3.44,60.31c-0.2,3.95-1.62,6.07-5.67,7.29
		c-23.98,7.69-47.87,15.58-71.85,23.48c-1.72,0.51-3.54,0.71-5.26,1.11c-25.3-8.4-50.6-16.8-75.9-25.1
		c-2.43-0.81-4.25-1.52-4.45-4.55c-0.81-17.2-1.62-34.51-2.53-51.71c0-0.3,0.2-0.61,0.51-1.32h40.99c0,6.78,0.2,13.66-0.1,20.44
		c-0.1,3.64,1.11,5.36,4.76,6.58c11.94,3.74,23.78,7.89,35.62,11.84c1.82,1.92,3.74,0.51,5.57-0.1c9.11-3.04,18.01-6.78,27.32-9.11
		c8.6-2.23,14.17-5.67,12.25-15.58c-0.1-0.71,0.3-1.42,0.3-2.13c0.3-10.83,2.13-21.56,1.52-33.09h-88.85
		C211.22,264.21,210.71,262.79,210.31,261.47z"/>
	<path class="st2" d="M254.94,369.96c1.72-0.4,3.54-0.51,5.26-1.11c23.98-7.79,47.87-15.79,71.85-23.48
		c4.05-1.32,5.46-3.44,5.67-7.29c1.11-20.14,2.23-40.28,3.44-60.31c1.62-27.02,3.44-53.94,5.06-80.96
		c1.11-17.2,2.13-34.41,3.14-51.61c0-0.51-0.2-1.01-0.61-2.43h-92.8c0-15.48,0.1-30.97,0-46.35c0-3.14,0.2-5.06,4.25-5.06
		c44.53,0.1,89.05,0.1,133.68,0.1c0.71,0,1.42,0.2,2.73,0.4c-0.4,6.17-0.61,12.14-1.11,18.22c-0.91,10.12-2.02,20.14-2.93,30.16
		l-4.25,47.56c-0.81,9.92-1.52,19.83-2.33,29.75c-1.32,14.78-2.83,29.45-4.15,44.22c-0.91,9.92-1.52,19.83-2.43,29.75
		c-1.32,15.28-2.83,30.56-4.15,45.84c-0.81,9.72-1.62,19.43-2.33,29.25c-0.4,5.57-0.91,11.23-1.11,16.8
		c-0.1,3.64-2.73,3.95-5.06,4.66c-19.33,5.57-38.66,11.13-57.99,16.6l-48.07,13.66c-1.21,0.3-2.43,0.81-3.85,0.2
		c-1.52-1.62-0.81-3.74-0.81-5.67c-0.1-12.14,0-24.39,0-36.53C256.05,374.11,256.35,371.88,254.94,369.96L254.94,369.96z"/>
	<path class="st2" d="M210.31,261.47c0.4,1.42,0.91,2.73,1.52,4.76h88.85c0.51,11.44-1.21,22.26-1.52,33.09
		c0,0.71-0.4,1.52-0.3,2.13c1.92,9.92-3.64,13.46-12.25,15.58c-9.31,2.33-18.22,6.07-27.32,9.11c-1.82,0.61-3.64,2.02-5.57,0.1
		c1.82-0.2,2.33-1.42,2.33-3.04v-54.65c-2.02-1.92-4.05-1.21-5.97-1.32c-11.44-0.1-22.87-0.2-34.31,0
		C211.32,267.34,209.09,266.23,210.31,261.47z M255.95,184.36h49.99c1.01,7.39-1.01,14.57-1.01,21.76c0,4.66-0.81,9.41-0.91,14.17
		c-0.1,4.25-1.72,5.46-5.97,5.46c-29.65-0.1-59.3,0-88.85,0.1c1.52-1.92,3.64-1.11,5.57-1.11c11.64-0.1,23.17,0,34.81-0.1
		c1.92,0,3.95,0.51,6.48-0.91C255.95,210.67,255.95,197.52,255.95,184.36L255.95,184.36z"/>
</g>
</svg>
