<?xml version="1.0" encoding="utf-8"?>
<!-- Generator: Adobe Illustrator 26.0.0, SVG Export Plug-In . SVG Version: 6.00 Build 0)  -->
<svg version="1.1" id="Layer_1" xmlns="http://www.w3.org/2000/svg" xmlns:xlink="http://www.w3.org/1999/xlink" x="0px" y="0px"
	width="512" height="512" viewBox="0 0 512 512" style="enable-background:new 0 0 512 512;" xml:space="preserve">
<style type="text/css">
	.st0{fill:#F15C2E;}
	.st1{fill:#FFFFFF;}
</style>
<g>
	<path class="st0" d="M85.15,61h341.69l-6.38,72.51c-2.21,24.63-4.42,49.35-6.55,73.99l-6.38,72.1
		c-2.21,24.63-4.42,49.35-6.55,73.99c-1.64,18.5-3.36,36.91-4.91,55.41c-0.25,2.46-0.98,3.68-3.52,4.34
		c-44.44,12.36-88.88,24.8-133.32,37.24c-2.13,0.57-4.09,0.57-6.3,0c-44.44-12.44-88.88-24.88-133.32-37.24
		c-2.54-0.74-3.36-1.88-3.6-4.34c-0.98-12.52-2.13-25.04-3.27-37.57l-6.38-72.92c-2.46-27.34-4.91-54.67-7.28-82.01l-6.38-72.92
		C90.06,116.16,87.61,88.58,85.15,61z M160.37,263.23h148.22c0,0.98,0.08,1.64,0,2.29c-1.47,16.94-3.03,33.88-4.5,50.82
		c-0.16,1.88-0.74,2.86-2.7,3.36c-14.49,3.85-28.89,7.86-43.29,11.79c-1.39,0.41-2.78,0.41-4.17,0
		c-14.4-3.93-28.81-7.94-43.29-11.79c-1.8-0.49-2.54-1.23-2.62-3.03c-0.16-3.68-0.49-7.37-0.82-11.05
		c-0.65-7.45-1.39-14.9-2.05-22.34h-42.89c0.25,3.19,0.57,6.22,0.82,9.25c1.64,18.82,3.36,37.73,4.99,56.55
		c0.25,2.54,1.06,3.6,3.6,4.34c27.34,7.53,54.67,15.22,82.01,22.92c1.64,0.49,3.19,0.41,4.83-0.08c27.42-7.69,54.92-15.39,82.42-23
		c2.29-0.65,3.03-1.55,3.19-3.76c1.47-17.19,3.03-34.46,4.5-51.64c2.21-24.39,4.42-48.86,6.55-73.25c0.16-1.47,0.65-3.03-0.49-4.75
		H199.57c-1.31-14.73-2.54-29.05-3.93-44.03h163.77c1.23-14.57,2.46-28.73,3.68-42.89H148.83
		C152.67,176.48,156.52,219.69,160.37,263.23z"/>
	<path class="st1" d="M160.37,263.23c-3.85-43.54-7.69-86.75-11.54-130.29h214.26c-1.23,14.24-2.46,28.32-3.68,42.89H195.64
		c1.31,14.9,2.62,29.3,3.93,44.03h155.09c1.15,1.72,0.57,3.27,0.49,4.75c-2.13,24.39-4.34,48.86-6.55,73.25
		c-1.56,17.19-3.11,34.37-4.5,51.64c-0.16,2.21-0.9,3.19-3.19,3.76c-27.5,7.53-54.92,15.22-82.42,23c-1.64,0.49-3.19,0.49-4.83,0.08
		c-27.34-7.69-54.67-15.39-82.01-22.92c-2.54-0.74-3.44-1.8-3.6-4.34c-1.56-18.82-3.27-37.73-4.99-56.55
		c-0.25-3.03-0.49-6.06-0.82-9.25h42.89c0.65,7.45,1.39,14.9,2.05,22.34c0.33,3.68,0.65,7.37,0.82,11.05
		c0.08,1.8,0.82,2.62,2.62,3.03c14.49,3.85,28.89,7.86,43.29,11.79c1.39,0.41,2.78,0.41,4.17,0c14.4-3.93,28.81-7.94,43.29-11.79
		c2.05-0.57,2.54-1.47,2.7-3.36c1.47-16.94,3.03-33.88,4.5-50.82c0.08-0.65,0-1.23,0-2.29H160.37z"/>
</g>
</svg>
