<?xml version="1.0" encoding="utf-8"?>
<!-- Generator: Adobe Illustrator 26.0.0, SVG Export Plug-In . SVG Version: 6.00 Build 0)  -->
<svg version="1.1" id="Layer_1" xmlns="http://www.w3.org/2000/svg" xmlns:xlink="http://www.w3.org/1999/xlink" x="0px" y="0px"
	width="512" height="512" viewBox="0 0 512 512" style="enable-background:new 0 0 512 512;" xml:space="preserve">
<style type="text/css">
	.st0{fill:#D5B930;}
	.st1{fill:#FCD73E;}
	.st2{fill:#050605;}
	.st3{fill:#4F4F4F;}
</style>
<g>
	<path class="st0" d="M84.19,61h343.58c0.12,2.15-0.12,4.31-0.3,6.46l-1.44,16.21l-1.79,20.21l-1.44,16.21l-1.79,20.21l-1.44,16.21
		c-0.6,6.82-1.2,13.58-1.85,20.39l-1.44,16.03l-1.79,20.03c-0.6,6.64-1.14,13.28-1.73,19.92l-1.79,20.03
		c-0.6,6.64-1.14,13.28-1.73,19.92l-2.15,23.62c-0.6,6.7-1.14,13.4-1.73,20.09l-2.15,23.62c-0.6,6.7-1.14,13.4-1.73,20.09
		l-2.15,23.62c-0.72,7.89-1.38,15.73-2.09,23.62c-0.12,1.5-0.12,3.05-0.48,4.55c-0.48,0.12-0.9,0.3-1.38,0.42l-138.39,38.39
		c-0.84,0.24-1.55,0.12-2.33-0.12c-45.69-12.68-91.38-25.36-137.13-38.1c-0.66-0.18-1.38-0.24-1.97-0.72c0-0.18-0.06-0.42-0.12-0.6
		l-1.08-11.66l-1.79-20.21l-1.44-16.21c-0.6-6.88-1.26-13.82-1.85-20.69l-1.44-15.85l-1.79-20.21l-1.44-16.21
		c-0.6-6.82-1.2-13.58-1.85-20.39l-1.44-16.03c-0.6-6.88-1.26-13.81-1.85-20.69c-0.48-5.2-0.9-10.47-1.38-15.67
		c-0.6-6.94-1.26-13.93-1.85-20.87c-0.48-5.2-0.96-10.47-1.38-15.67c-0.6-6.88-1.26-13.7-1.85-20.57
		c-0.48-5.26-0.96-10.59-1.38-15.85c-0.6-6.88-1.26-13.81-1.85-20.69l-1.44-15.85l-1.79-20.21c-0.48-5.62-1.02-11.24-1.5-16.81
		C84.67,67.58,84.25,64.29,84.19,61L84.19,61z M256.43,420.97c0.6,0.24,1.08,0,1.61-0.18c4.25-1.14,8.43-2.33,12.68-3.53
		c10.23-2.81,20.45-5.68,30.68-8.49c9.63-2.63,19.2-5.32,28.83-7.95l28.35-7.89c3.29-0.9,6.58-1.85,9.87-2.69
		c1.02-0.3,1.5-0.78,1.61-1.91c0.24-3.23,0.6-6.46,0.9-9.69l0.72-8.73l0.9-9.99l0.72-8.25l0.9-9.21l0.72-9.03
		c0.42-4.61,0.78-9.27,1.26-13.87c0.18-1.55,0.24-3.11,0.42-4.66c0.3-3.11,0.6-6.22,0.84-9.39l0.72-8.73l0.9-9.69l0.72-8.55
		c0.3-2.93,0.6-5.92,0.84-8.85c0.24-2.99,0.42-6.04,0.72-9.03c0.48-4.66,0.96-9.33,1.26-14.05c0.12-1.5,0.3-2.99,0.42-4.55
		c0.3-3.05,0.6-6.16,0.84-9.21c0.24-2.99,0.48-5.92,0.78-8.91c0.3-2.99,0.6-5.92,0.84-8.85l0.72-9.03
		c0.42-4.61,0.78-9.27,1.26-13.87c0.18-1.55,0.24-3.11,0.42-4.66c0.3-3.05,0.6-6.16,0.84-9.21c0.24-2.99,0.48-5.92,0.78-8.91
		c0.3-2.99,0.6-5.92,0.84-8.85l0.72-9.03c0.42-4.6,0.78-9.27,1.26-13.87c0.18-1.55,0.24-3.11,0.42-4.66c0.3-2.93,0.6-5.92,0.84-8.85
		l0.72-9.03c0.36-4.13,0.84-8.25,1.2-12.44c0.3-3.53,0.54-7,0.96-10.53c0.24-2.03,0-2.27-1.97-2.33H259.06
		c-3.35,0-3.05-0.18-3.05,3.11v326.42C256.13,419.71,255.95,420.37,256.43,420.97L256.43,420.97z M131.14,281.56
		c-0.18,0.54-0.12,1.02-0.06,1.5c0.3,2.99,0.6,5.92,0.84,8.91c0.78,9.09,1.61,18.24,2.39,27.33c0.84,9.09,1.67,18.12,2.45,27.15
		c0.24,2.69,0.24,2.69,2.81,3.17c10.05,1.97,20.15,3.95,30.2,5.98c11.24,2.21,22.49,4.49,33.73,6.7l35.17,7
		c1.85,0.36,3.77,0.72,5.74,1.14V129.78h-96.11c1.32,14.35,2.63,28.65,4.01,43.06h48.8V319.3c-8.01-1.2-15.85-2.33-23.8-3.47
		l-3.05-34.27H131.14L131.14,281.56z"/>
	<path class="st1" d="M256.43,420.97c-0.48-0.54-0.3-1.26-0.3-1.85V92.7c0-3.29-0.36-3.11,3.05-3.11h135.34
		c1.97,0,2.21,0.24,1.97,2.33c-0.42,3.47-0.66,7-0.96,10.53c-0.36,4.13-0.84,8.31-1.2,12.44c-0.3,2.99-0.48,6.04-0.72,9.03
		s-0.6,5.92-0.84,8.85c-0.18,1.55-0.24,3.11-0.42,4.66c-0.48,4.6-0.9,9.27-1.26,13.87l-0.72,9.03c-0.24,2.99-0.6,5.92-0.84,8.85
		c-0.3,2.99-0.48,5.92-0.78,8.91c-0.3,3.05-0.54,6.16-0.84,9.21c-0.12,1.55-0.24,3.11-0.42,4.66c-0.48,4.6-0.9,9.27-1.26,13.87
		l-0.72,9.03c-0.24,2.99-0.6,5.92-0.84,8.85c-0.3,2.99-0.48,5.92-0.78,8.91c-0.3,3.05-0.6,6.16-0.84,9.21
		c-0.12,1.5-0.3,2.99-0.42,4.55c-0.3,4.66-0.78,9.39-1.26,14.05c-0.3,2.99-0.48,6.04-0.72,9.03c-0.24,2.99-0.6,5.92-0.84,8.85
		l-0.72,8.55l-0.9,9.69l-0.72,8.73c-0.3,3.11-0.6,6.22-0.84,9.39c-0.12,1.55-0.24,3.11-0.42,4.66c-0.48,4.61-0.9,9.27-1.26,13.87
		l-0.72,9.03c-0.24,3.05-0.6,6.16-0.9,9.21l-0.72,8.25l-0.9,9.99l-0.72,8.73c-0.3,3.23-0.66,6.46-0.9,9.69
		c-0.06,1.14-0.54,1.61-1.61,1.91c-3.29,0.84-6.58,1.79-9.87,2.69l-28.35,7.89c-9.63,2.69-19.2,5.32-28.83,7.95
		c-10.23,2.81-20.45,5.68-30.68,8.49c-4.25,1.2-8.43,2.39-12.68,3.53C257.51,420.91,256.97,421.21,256.43,420.97z M268.27,129.84
		c-0.36,1.73-0.3,128.76,0.06,130.14h58.37c-1.73,18.72-3.47,37.2-5.2,55.8c-17.88,3.29-35.64,6.52-53.35,9.75
		c-0.42,2.87-0.24,43.66,0.18,44.85c31.1-7.06,62.2-14.17,93.42-21.29c3.95-44.08,7.95-88.03,11.96-132.23h-60.52
		c-0.36-2.27-0.24-42.82,0.12-44.14h64.23c1.26-14.35,2.57-28.65,3.77-42.94C343.51,129.84,305.83,129.84,268.27,129.84
		L268.27,129.84z"/>
	<path class="st2" d="M131.14,281.56h43.12l3.05,34.27c7.95,1.14,15.79,2.33,23.8,3.47V172.84h-48.8
		c-1.32-14.41-2.63-28.71-4.01-43.06h96.11v240.66c-1.97-0.36-3.83-0.72-5.74-1.14l-35.17-7c-11.24-2.21-22.49-4.49-33.73-6.7
		c-10.05-1.97-20.15-4.01-30.2-5.98c-2.57-0.48-2.57-0.48-2.81-3.17c-0.84-9.03-1.67-18.12-2.45-27.15
		c-0.84-9.09-1.61-18.24-2.39-27.33c-0.24-2.99-0.54-5.92-0.84-8.91C131.02,282.58,130.96,282.1,131.14,281.56L131.14,281.56z"/>
	<path class="st3" d="M268.27,129.84h113.09c-1.2,14.29-2.51,28.59-3.77,42.94h-64.23c-0.36,1.26-0.42,41.86-0.12,44.14h60.52
		c-4.01,44.2-7.95,88.15-11.96,132.23c-31.22,7.12-62.32,14.17-93.42,21.29c-0.42-1.2-0.54-41.98-0.18-44.85
		c17.7-3.23,35.46-6.46,53.35-9.75l5.2-55.8h-58.37C267.92,258.6,267.92,131.57,268.27,129.84L268.27,129.84z"/>
</g>
</svg>
