<?xml version="1.0" encoding="utf-8"?>
<!-- Generator: Adobe Illustrator 26.0.0, SVG Export Plug-In . SVG Version: 6.00 Build 0)  -->
<svg version="1.1" id="Layer_1" xmlns="http://www.w3.org/2000/svg" xmlns:xlink="http://www.w3.org/1999/xlink" x="0px" y="0px"
	width="512" height="512" viewBox="0 0 512 512" style="enable-background:new 0 0 512 512;" xml:space="preserve">
<style type="text/css">
	.st0{fill:#525D95;}
	.st1{fill:#FFFFFF;}
</style>
<g>
	<path class="st0" d="M267.71,61c1.6,0.84,3.38,0.54,5.1,0.66c46.31,4.42,86.1,22.96,119.25,55.77
		c26.8,26.54,44.3,58.46,52.72,95.35c4.51,19.73,5.75,39.69,4.03,59.9c-2.08,24.63-8.54,48-19.51,70
		c-15.18,30.55-36.88,55.48-64.93,74.73c-22.89,15.72-48.03,26.06-75.31,30.67c-40.92,6.93-80.29,1.61-117.59-16.8
		c-38.72-19.13-67.96-48.18-87.82-86.74c-10.44-20.27-16.96-41.85-19.69-64.5c-4.57-38.2,1.19-74.73,18.03-109.28
		c18.98-39.04,47.8-68.51,86.1-88.47c19.21-10.04,39.61-16.44,61.02-19.43c4.74-0.66,9.49-1.2,14.29-1.49
		c0.36,0,0.77,0.12,0.95-0.36L267.71,61L267.71,61z"/>
	<path class="st0" d="M153.14,292.17h24.25c13.99,0,25.2-5.86,33.98-16.5c8.78-10.64,11.92-23.13,10.5-36.76
		c-0.71-6.76-3.44-12.67-8.84-17.1c-5.81-4.72-12.75-6.76-19.98-6.87c-16.01-0.3-31.96-0.12-47.97-0.18c-0.24,0-0.47,0.12-0.77,0.18
		c-6.82,34.61-13.58,69.17-20.46,104.14h24.37C149.82,310.28,151.48,301.26,153.14,292.17z"/>
	<path class="st0" d="M321.79,214.93c-6.82,34.61-13.58,69.17-20.46,104.14h24.37c1.6-8.79,3.26-17.75,4.92-26.9h24.43
		c12.63,0.06,23.13-4.96,31.73-13.99c10.02-10.64,13.88-23.61,12.75-38.08c-0.83-10.58-6.05-18.35-16.07-22.42
		c-4.03-1.61-8.3-2.69-12.63-2.75c-16.13-0.12-32.26-0.12-48.33-0.12C322.32,214.81,322.21,214.81,321.79,214.93z"/>
	<path class="st0" d="M219.08,292.95h23.6c1.48-7.23,2.85-14.17,4.27-21.16c2.37-11.9,4.8-23.85,7.12-35.75
		c0.18-0.9,0.42-1.37,1.42-1.32c6.94,0.18,13.88-0.3,20.75,0.24c4.51,0.36,6.23,2.63,5.63,7.11c-0.89,7.23-2.49,14.35-3.8,21.52
		c-1.78,9.86-3.62,19.67-5.46,29.59h25.8c0.12-0.24,0.18-0.36,0.18-0.48c3.02-17.93,5.99-35.81,9.01-53.74
		c1.3-7.65-1.66-14.35-8.24-18.35c-4.92-3.05-10.32-4.36-16.01-4.54c-7.47-0.24-15-0.12-22.47-0.18c-0.65,0-1.36,0.24-2.13-0.42
		c1.6-8.85,3.2-17.81,4.86-26.84h-24.25C232.6,223.48,225.84,258.21,219.08,292.95L219.08,292.95z"/>
	<path class="st1" d="M153.14,292.17c-1.66,9.15-3.32,18.11-4.92,26.9h-24.37c6.88-34.97,13.64-69.52,20.46-104.14
		c0.3-0.06,0.53-0.18,0.77-0.18c16.01,0,32.02-0.12,47.97,0.18c7.29,0.12,14.17,2.15,19.98,6.87c5.4,4.36,8.12,10.28,8.84,17.1
		c1.42,13.63-1.72,26.12-10.5,36.76c-8.78,10.64-20.04,16.5-33.98,16.5H153.14z"/>
	<path class="st1" d="M158.12,272.02c2.02,0.36,3.97,0.3,5.93,0.3c4.63,0,9.25,0.72,13.88-0.36c7.89-1.85,13.82-5.86,16.66-13.81
		c1.48-4.3,2.25-8.73,2.25-13.21c0-4.12-1.96-7.11-5.51-9.09c-2.19-1.2-4.51-1.85-7-2.03c-6.05-0.48-12.1-0.12-18.15-0.3
		c-1.13,0-1.48,0.36-1.66,1.49C162.39,247.27,160.26,259.47,158.12,272.02L158.12,272.02z"/>
	<path class="st1" d="M321.79,214.93c0.42-0.06,0.53-0.12,0.65-0.12c16.13,0,32.26,0,48.33,0.12c4.33,0.06,8.6,1.08,12.63,2.75
		c10.02,4.07,15.18,11.84,16.07,22.42c1.19,14.47-2.67,27.44-12.75,38.08c-8.54,9.09-19.09,14.05-31.73,13.99h-24.43
		c-1.66,9.15-3.32,18.11-4.92,26.9h-24.37C308.21,284.1,314.97,249.49,321.79,214.93z"/>
	<path class="st1" d="M336.14,272.26c6.17-0.24,12.1,1.02,18.03,0.06c11.09-1.79,17.02-7.23,19.51-17.99
		c0.89-3.83,1.72-7.77,0.89-11.66c-1.07-5.02-4.8-7.41-9.49-8.37c-7.12-1.43-14.29-0.54-21.47-0.72c-0.89,0-1.01,0.54-1.13,1.26
		C340.41,247.16,338.33,259.47,336.14,272.26z"/>
	<path class="st1" d="M219.08,292.95c6.76-34.67,13.58-69.46,20.4-104.26h24.25c-1.66,9.03-3.26,17.99-4.86,26.84
		c0.77,0.6,1.48,0.36,2.13,0.42c7.47,0.06,15-0.12,22.47,0.18c5.63,0.18,11.09,1.49,16.01,4.54c6.58,4.07,9.55,10.76,8.24,18.35
		c-3.02,17.93-6.05,35.81-9.01,53.74c0,0.12-0.12,0.24-0.18,0.48h-25.8c1.84-9.92,3.68-19.73,5.46-29.59
		c1.3-7.17,2.91-14.29,3.8-21.52c0.59-4.48-1.13-6.76-5.63-7.11c-6.94-0.6-13.82-0.12-20.75-0.24c-1.01,0-1.25,0.42-1.42,1.32
		l-7.12,35.75c-1.42,6.93-2.79,13.87-4.27,21.16C234.8,292.95,227.03,292.95,219.08,292.95z"/>
	<path class="st0" d="M158.12,272.02c2.19-12.55,4.27-24.75,6.35-37c0.18-1.14,0.53-1.49,1.66-1.49c6.05,0.12,12.1-0.24,18.15,0.3
		c2.49,0.18,4.86,0.84,7,2.03c3.5,1.97,5.51,4.96,5.51,9.09c0,4.54-0.71,8.97-2.25,13.21c-2.79,7.95-8.72,12.02-16.66,13.81
		c-4.68,1.08-9.25,0.3-13.88,0.36C162.1,272.38,160.14,272.38,158.12,272.02L158.12,272.02z"/>
	<path class="st0" d="M336.14,272.26c2.19-12.79,4.33-25.11,6.4-37.42c0.12-0.66,0.24-1.26,1.13-1.26
		c7.18,0.24,14.35-0.66,21.47,0.72c4.63,0.96,8.42,3.35,9.49,8.37c0.83,3.89,0,7.83-0.89,11.66c-2.55,10.76-8.48,16.2-19.51,17.99
		C348.24,273.28,342.31,272.02,336.14,272.26z"/>
</g>
</svg>
